<?xml version="1.0" encoding="UTF-8"?>
<svg xmlns="http://www.w3.org/2000/svg" viewBox="0 0 196.77 192.76">
  <g id="Layer_2" data-name="Layer 2">
    <g id="レイヤー_1" data-name="レイヤー 1">
      <path d="M96.08,10.48a1,1,0,0,0-.07-.26,3.12,3.12,0,0,1-.22-1.83,2.31,2.31,0,0,1,.93-1.58A4,4,0,0,1,98.57,6a14.58,14.58,0,0,1,2-.19c1.17,0,2.35-.1,3.52-.12s2.54,0,3.81.06a4,4,0,0,0,.49,0c1.49,0,3,0,4.47-.1H113a3.27,3.27,0,0,0,1.52-.42c1.65-.89,3.34-1.69,5-2.47A36.63,36.63,0,0,1,124.28.91a25.77,25.77,0,0,1,3.26-.78,9.28,9.28,0,0,1,3,0,7,7,0,0,1,3.37,1.66,25.23,25.23,0,0,1,1.85,1.73,20.69,20.69,0,0,1,1.82,2.15c.33.44.66.88,1,1.31.16.2.26.23.47.09s.7-.47,1-.72A33.63,33.63,0,0,1,143.77,4a4,4,0,0,1,1-.39,2.11,2.11,0,0,1,2,.47,1.82,1.82,0,0,1,.31.31c.22.28.24.23.53.06A13.7,13.7,0,0,1,150.32,3a10.3,10.3,0,0,1,4.83-.53,4.29,4.29,0,0,1,1.15.37,7.38,7.38,0,0,1,3,2.55c.55.81,1.11,1.6,1.6,2.45a22.3,22.3,0,0,1,1.53,3.42c.39,1.05.78,2.09,1.1,3.17.18.63.26.65.85.4a31.06,31.06,0,0,1,6-1.9,23.09,23.09,0,0,1,3.71-.47,8.5,8.5,0,0,1,3.72.63,5.48,5.48,0,0,1,2.81,2.6,11.38,11.38,0,0,1,1.17,3.59,44.83,44.83,0,0,1,.5,4.77,42.87,42.87,0,0,1-.15,5.67c0,.53-.1,1.06-.15,1.59,0,.11,0,.22,0,.33a.19.19,0,0,0,.17.19l.61,0c.86,0,1.72-.1,2.58-.18,1.45-.15,2.88-.37,4.33-.45a12.94,12.94,0,0,1,1.87.09,2.43,2.43,0,0,1,2.19,2.08,2.4,2.4,0,0,1,.07.65,7.2,7.2,0,0,1-1.23,4,15.54,15.54,0,0,1-2.13,2.45c-.38.35-.75.71-1.11,1.06,0,0,0,0,0,.05a.51.51,0,0,0,.26.2L191.64,43c.51.29,1,.59,1.51.91a8.88,8.88,0,0,1,1.81,1.6,6.5,6.5,0,0,1,1.51,3.26,16.53,16.53,0,0,1,.18,2.63c0,2.8,0,5.59,0,8.39,0,4,0,8,.07,12,.06,5.72,0,11.43,0,17.15,0,6.58,0,13.16,0,19.74-.06,10.58,0,21.17,0,31.76,0,3,0,5.95,0,8.93a9.32,9.32,0,0,1-.27,2.35,7.42,7.42,0,0,1-.85,2c-.14.22-.28.43-.41.66a5.89,5.89,0,0,1-2,2,13.36,13.36,0,0,1-3.4,1.54q-10.05,2.93-20.11,5.81c-.64.18-1.28.33-1.92.5-.32.08-.65.15-1,.26-1.46.55-3,.9-4.48,1.36s-3,.91-4.49,1.32-3,.88-4.55,1.33l-2.22.64c-2,.57-3.92,1.1-5.87,1.71q-2.55.8-5.13,1.48c-2.33.61-4.62,1.36-6.93,2-2.54.74-5.08,1.47-7.61,2.22q-6.07,1.8-12.17,3.54c-7.66,2.21-15.3,4.46-23,6.64-3.78,1.08-7.54,2.2-11.32,3.3-1.09.31-2.16.72-3.25,1l-2,.54-1.53.46a16,16,0,0,1-2.44.65c-.2,0-.4.06-.6.07l-2.43.11a11.29,11.29,0,0,1-4.83-.94l-8-3.37L19.56,173.67c-3.7-1.58-7.38-3.2-11.07-4.8-.31-.13-.62-.24-.92-.38-1-.5-2.1-1-3.13-1.5a7.31,7.31,0,0,1-2.85-2.53,8.2,8.2,0,0,1-1.14-2.85,21.59,21.59,0,0,1-.32-4.17c0-1.78,0-3.56,0-5.35,0-3.45,0-6.91-.06-10.36L0,99.38q0-9.31,0-18.63Q0,72.86,0,65c0-.92,0-1.84,0-2.76A14.66,14.66,0,0,1,.6,59.08,6,6,0,0,1,3.23,55.6a11.13,11.13,0,0,1,2.3-1.05c1-.32.84-.17.79-1.12-.09-2.28-.12-4.56-.21-6.83-.15-3.51-.13-7,0-10.53a33.06,33.06,0,0,1,.42-4.33,5.7,5.7,0,0,1,.36-1.33,4,4,0,0,1,2.45-2.3,6.52,6.52,0,0,1,2-.34,16.6,16.6,0,0,1,3.07.18,25.94,25.94,0,0,1,3.5.75.42.42,0,0,0,.16,0,.2.2,0,0,0,.26-.13l.24-.68a18.75,18.75,0,0,1,2.73-5.2,7.7,7.7,0,0,1,2.32-2.08A5.76,5.76,0,0,1,27.37,20a7.2,7.2,0,0,1,2.55.86,38.72,38.72,0,0,1,5,3.26,11.21,11.21,0,0,1,2.13,2.22c.14.2.21.48.52.52.2-.17.21-.42.3-.64.22-.53.43-1.06.65-1.58a8.28,8.28,0,0,1,.89-1.52,3.86,3.86,0,0,1,2-1.42,7.65,7.65,0,0,1,2.78-.29,14.1,14.1,0,0,1,4.93,1.28,28,28,0,0,1,2.53,1.21,1.15,1.15,0,0,0,1.16,0c.32-.15.63-.3.94-.47,1.11-.61,2.23-1.2,3.28-1.92a11.17,11.17,0,0,0,2.26-1.92c.41-.47.85-.91,1.3-1.35A4.22,4.22,0,0,1,63,17.09a2.9,2.9,0,0,1,2,.39,4,4,0,0,1,.7.53,11.67,11.67,0,0,1,2.52,3.39c.26.53.3.55.89.51a1.24,1.24,0,0,0,.27,0c.81-.14.9-.2,1.34-.91.58-.95,1.16-1.91,1.76-2.86a16.24,16.24,0,0,1,2.76-3.42,10,10,0,0,1,1.91-1.39,8.37,8.37,0,0,1,3.28-.87,7.46,7.46,0,0,1,2.62.23c.22.06.44.08.65.15a.72.72,0,0,0,.79-.24l.71-.69a10.92,10.92,0,0,1,3.14-2.3,7.94,7.94,0,0,1,2.54-.71,6.46,6.46,0,0,1,3,.44,18.45,18.45,0,0,1,1.76.92Zm96.17,119.13c0-.66,0-1.32,0-2q0-8.66.05-17.32c0-.74,0-.66-.65-.45l-4,1.25L184,112.2c-9.31,2.79-18.61,5.6-27.92,8.36q-17.72,5.26-35.42,10.6c-11.86,3.54-23.69,7.18-35.56,10.69-5.25,1.54-10.49,3.13-15.73,4.7-.37.11-.73.26-1.09.38a.47.47,0,0,0-.34.51c0,.25,0,.51,0,.77l.09,11.85c0,4,.08,8,.11,12,0,3.46,0,6.91.07,10.37a9.79,9.79,0,0,1,0,1.21,3,3,0,0,1-.32,1.28,1,1,0,0,1-1.77.16,2,2,0,0,1-.42-1c-.06-.4-.12-.8-.15-1.2-.05-.93-.06-1.87-.12-2.8,0-.7,0-1.4,0-2.1q-.12-8.3-.23-16.59-.1-7.08-.19-14.17c0-.78,0-.82-.74-1.09q-6.92-2.74-13.83-5.49c-3.57-1.41-7.16-2.77-10.71-4.21-6.68-2.71-13.37-5.36-20.06-8L6,122.94l-1.33-.55-.31-.11a.11.11,0,0,0-.15.11q0,.3,0,.6L4.1,135.23c0,3.51-.07,7-.09,10.54,0,3,0,6,0,9,0,.88,0,1.76.06,2.64s.06,1.58.15,2.37a3,3,0,0,0,1.07,2,14.51,14.51,0,0,0,3.57,2.27c5.93,2.54,11.83,5.13,17.76,7.65Q38,176.63,49.4,181.39c4.4,1.85,8.82,3.65,13.19,5.57.37.17.75.31,1.13.46a6.27,6.27,0,0,0,1.27.34q.8.12,1.59.21A5.71,5.71,0,0,0,68,188c1-.14,1.91-.34,2.86-.55.63-.13,1.27-.24,1.89-.42L89.85,182l31.86-9.21,23.75-6.92c3.86-1.12,7.73-2.21,11.6-3.33l19.2-5.6,12.54-3.62a4.69,4.69,0,0,0,1.79-1,4.16,4.16,0,0,0,1.38-2.14,6.8,6.8,0,0,0,.21-1.74c0-2.54,0-5.08,0-7.61C192.18,137.15,192.17,133.38,192.25,129.61Zm.15-62.87h0q0-6.91.05-13.84c0-.55,0-1.1-.06-1.65a6,6,0,0,0-.54-2.24,4.1,4.1,0,0,0-1.35-1.63c-.67-.46-1.37-.86-2.08-1.26-1.22-.67-2.46-1.31-3.68-2a1,1,0,0,0-.93-.05,16.5,16.5,0,0,1-2,.68,17.59,17.59,0,0,1-4.51.63,1,1,0,0,0-.8.37,6.84,6.84,0,0,1-2.1,1.68,28,28,0,0,1-3.25,1.49c-3.95,1.55-7.91,3.08-11.92,4.46-1,.35-2,.72-3,1-1.81.55-3.62,1.08-5.45,1.57-2.53.69-5.08,1.34-7.62,2-.36.09-.72.15-1.08.22l-1.85.29c-.89.13-1.78.28-2.68.36a19.47,19.47,0,0,1-3.74,0,6.14,6.14,0,0,1-2.46-.76,2.74,2.74,0,0,1-.67-.56,3.93,3.93,0,0,1-.79-1.37c-.12-.34-.14-.34-.48-.23l-.21.06c-1.39.51-2.81,1-4.25,1.34a1.82,1.82,0,0,0-.88.53c-.4.41-.81.8-1.23,1.19a6.29,6.29,0,0,1-1.51,1.1,4.08,4.08,0,0,1-2.61.46,1.83,1.83,0,0,1-1.14-.7c-.09-.12-.17-.25-.25-.37a.37.37,0,0,0-.26-.18,1.07,1.07,0,0,0-.59.1.23.23,0,0,0-.14.27,1.59,1.59,0,0,0,.24.55,7.36,7.36,0,0,1,.42.9,2.94,2.94,0,0,1-.35,2.78,5.8,5.8,0,0,1-2.28,2,14.36,14.36,0,0,1-2,.82c-2.31.78-4.65,1.49-7,2.16-1.39.4-2.78.83-4.18,1.2s-3.1.79-4.65,1.18-3.09.79-4.65,1.15c-2.6.59-5.2,1.15-7.8,1.73a48.24,48.24,0,0,1-7,1,10.54,10.54,0,0,1-1.37.06c-.9,0-1.8-.11-2.7-.18-.27,0-.54-.09-.82-.11a27.41,27.41,0,0,1-3.48-.56c-1.48-.33-3-.7-4.44-1.06-1.2-.29-2.39-.61-3.59-.88s-2.17-.4-3.22-.74a1.14,1.14,0,0,0-.75,0l-.47.17a3.54,3.54,0,0,1-1.74.1,5.33,5.33,0,0,1-1.44-.54,6.83,6.83,0,0,1-1.17-.82,1.81,1.81,0,0,0-.93-.45c-.27,0-.53-.14-.8-.21-1.44-.42-2.88-.86-4.34-1.24-.57-.14-1.12-.35-1.68-.53A4.71,4.71,0,0,1,43,67.7a2.25,2.25,0,0,1-.77-.85,3.46,3.46,0,0,1-.37-2.4.78.78,0,0,0,0-.22c0-.12-.07-.2-.2-.19a1.65,1.65,0,0,0-.32.06l-.76.16c-1.13.24-2.27.4-3.41.6-1.6.27-3.2.49-4.81.61l-1.21.08a25.54,25.54,0,0,1-3,0,14.66,14.66,0,0,1-2.56-.39c-1.41-.35-2.8-.73-4.2-1.12-1.05-.28-2.06-.66-3.08-1-1.81-.67-3.63-1.32-5.43-2-1.41-.53-2.79-1.13-4.17-1.73a1.2,1.2,0,0,0-.58-.18,2.78,2.78,0,0,0-.86.15,3.64,3.64,0,0,0-1.9,1.68A8.05,8.05,0,0,0,4.45,64c0,.69-.06,1.39-.06,2.09q-.08,7.5-.12,15c0,3.69,0,7.39,0,11.08,0,.81,0,1.62,0,2.43a.4.4,0,0,0,.31.45l.2.08c1.14.47,2.27.95,3.41,1.4,6,2.34,11.92,4.73,17.89,7.06,8.36,3.27,16.71,6.6,25.09,9.82,4.32,1.66,8.63,3.36,12.94,5,.63.24.64.23.64-.44,0-1.43,0-2.86,0-4.3-.06-2.83-.07-5.66-.1-8.49,0-2.09,0-4.19,0-6.28,0-1.49-.05-3-.08-4.47,0-1.82,0-3.64-.08-5.45a7,7,0,0,1,.41-2.49,1.86,1.86,0,0,1,.45-.75.88.88,0,0,1,1.32,0,2,2,0,0,1,.45.75,7.26,7.26,0,0,1,.32,1.28,13.67,13.67,0,0,1,.18,2.31c0,1.49,0,3,0,4.46q.07,9.66.16,19.3c0,1.53,0,3.05.06,4.58,0,.41.07.45.46.36l.42-.12,27.63-8q10.88-3.15,21.74-6.32c7.12-2.09,14.23-4.21,21.35-6.3q9.48-2.79,19-5.55c6.3-1.86,12.6-3.74,18.91-5.59,2.7-.79,5.38-1.62,8.09-2.34.91-.25,1.8-.54,2.7-.81,1.25-.37,2.5-.74,3.74-1.13.57-.17.55,0,.55-.75l0-2.15Q192.38,73.26,192.4,66.74ZM56.11,60.33c.16,0,.23-.14.33-.22s.27-.24.42-.35a5.82,5.82,0,0,1,3.44-1,2.72,2.72,0,0,1,.75.11,1,1,0,0,1,.8.76.52.52,0,0,1-.33.71,3.31,3.31,0,0,1-.68.2,8.76,8.76,0,0,0-2.49.86,3.81,3.81,0,0,0-.87.67.46.46,0,0,0,0,.72.87.87,0,0,0,.77.22A9.33,9.33,0,0,0,61,62.2a3.24,3.24,0,0,0,1.2-.94c.1-.13.22-.25.33-.37a1,1,0,0,1,.74-.32.6.6,0,0,1,.67.52,1.34,1.34,0,0,1,0,.66,3,3,0,0,1-.5,1,4.14,4.14,0,0,1-1.24,1.08,7.51,7.51,0,0,1-2.63,1L58.31,65c-.2,0-.25.09-.24.3a3.25,3.25,0,0,0,0,.44c0,.31.07.62.1.93s.08.77.11,1.15a.49.49,0,0,0,.42.51c.23,0,.46.11.69.17,1.69.44,3.38.89,5.07,1.31,1,.23,1.91.38,2.86.61,1.43.33,2.87.58,4.33.81.68.11,1.38.21,2.07.3s1.16.15,1.75.19a17.72,17.72,0,0,0,3.85-.17c1.14-.17,2.29-.31,3.43-.53,1.72-.35,3.44-.75,5.17-1.1,3.2-.64,6.39-1.36,9.54-2.25,2.84-.8,5.71-1.54,8.53-2.43a38.24,38.24,0,0,0,5.26-2c.26-.13.53-.25.79-.39a2.55,2.55,0,0,0,.8-.66.51.51,0,0,0,.09-.56c-.08-.17-.17-.33-.25-.49-.38-.7-.87-1.32-1.29-2a19.84,19.84,0,0,0-3-3.58c-1.07-1.06-2.21-2-3.32-3.06-.65-.6-1.33-1.17-2-1.71s-1.31-1-1.94-1.54A35.38,35.38,0,0,0,98,47a6.37,6.37,0,0,0-2.59-1,16.5,16.5,0,0,0-3.58-.16c-.27,0-.55,0-.82,0-1.16,0-2.31.21-3.46.3-1,.07-1.93.25-2.89.39-.56.09-1.13.16-1.69.26-2,.37-4,.87-6,1.34a35.19,35.19,0,0,0-3.92,1.14c-2,.75-4,1.5-6,2.38-1.81.81-3.59,1.69-5.39,2.54a64.7,64.7,0,0,0-5.94,3.13,6.1,6.1,0,0,0-.59.4c-.25.19-.26.23-.12.51.3.65.62,1.29.93,1.93C56,60.22,56.08,60.27,56.11,60.33Zm122-35a26.11,26.11,0,0,0-.26-4.24,10.25,10.25,0,0,0-1-2.95,2.2,2.2,0,0,0-.65-.74,2.86,2.86,0,0,0-1.84-.62,21.47,21.47,0,0,0-3.4.29,25.36,25.36,0,0,0-3.94,1,43.37,43.37,0,0,0-4.61,2,56.18,56.18,0,0,0-8.49,5.1l-.63.45a67.09,67.09,0,0,0-5.36,4.14c-.31.27-.63.51-.91.8-.87.9-1.72,1.81-2.56,2.74-1,1.1-1.92,2.23-2.89,3.33A22.45,22.45,0,0,0,140,38.67c-.88,1.31-1.64,2.7-2.44,4a27.65,27.65,0,0,0-1.7,3.4c-.41,1-.85,2-1.26,2.94-.22.5-.42,1-.59,1.54a9,9,0,0,0-.53,3.13,1.66,1.66,0,0,0,1.26,1.68,4,4,0,0,0,1.14.15,22.64,22.64,0,0,0,3.18-.29,32.52,32.52,0,0,0,3.23-.68c2.46-.59,4.91-1.26,7.34-2,1.91-.55,3.84-1,5.73-1.61s3.52-1.18,5.28-1.74c2.32-.73,4.61-1.51,6.85-2.44,1.36-.56,2.72-1.12,4-1.75a5.63,5.63,0,0,0,2-1.48,16.32,16.32,0,0,0,1.66-2.46,16.1,16.1,0,0,0,1.47-4c.29-1.18.51-2.37.72-3.56.23-1.38.46-2.75.58-4.14S178.06,26.66,178.12,25.3ZM10,44.47h0c0,.3,0,.59,0,.89,0,1.23,0,2.46.07,3.69.07,1.61.16,3.23.17,4.85a4.59,4.59,0,0,0,.28,1.51,2.12,2.12,0,0,0,1,1.22,7.16,7.16,0,0,0,.78.4,23.64,23.64,0,0,0,3,1,35.77,35.77,0,0,1,3.45,1.15A56.56,56.56,0,0,0,26,61.4a13.32,13.32,0,0,0,3.78.26c2-.07,3.91-.41,5.86-.66,1.09-.14,2.18-.34,3.27-.49,2.18-.31,4.36-.64,6.51-1.12.67-.15.72,0,.62-.87a14.27,14.27,0,0,1-.16-1.59.43.43,0,0,0-.25-.4A8.08,8.08,0,0,1,44,55.27a11.36,11.36,0,0,1-3.42-5.54c-.09-.38-.14-.76-.2-1.14a8.29,8.29,0,0,1-.1-2.63c0-.11,0-.23,0-.33a1.17,1.17,0,0,0-.41-1.13c-.69-.66-1.38-1.32-2.13-1.92-1.23-1-2.48-1.9-3.79-2.74-1.47-1-2.94-1.89-4.48-2.71s-3-1.58-4.51-2.32a23.36,23.36,0,0,0-3.69-1.45l-1-.31A28.66,28.66,0,0,0,14,31.66c-.6-.06-1.21-.08-1.82-.11a1.43,1.43,0,0,0-1.39.82,3,3,0,0,0-.37,1.2c0,.69-.1,1.39-.14,2.09-.09,1.52-.09,3.05-.17,4.57S10.07,43.06,10,44.47ZM116.39,26.78a37.3,37.3,0,0,0-4.22.47,45.05,45.05,0,0,0-5,1c-1.41.34-2.81.72-4.2,1.12a38.63,38.63,0,0,0-3.77,1.24c-.88.36-1.75.76-2.61,1.16-1.73.79-3.4,1.68-5,2.63a41.33,41.33,0,0,0-3.74,2.44,39.31,39.31,0,0,0-5.09,4.29,7.74,7.74,0,0,0-1.11,1.37,2.87,2.87,0,0,0-.2.39.11.11,0,0,0,.11.15l.27,0a40.43,40.43,0,0,1,4.89-.77A33.83,33.83,0,0,1,92.18,42l1,0A13.7,13.7,0,0,1,99,43.54a22.7,22.7,0,0,1,4.51,2.94c.4.33.79.67,1.19,1a38.59,38.59,0,0,1,3.61,3.15c1.75,1.76,3.47,3.55,5.19,5.34a.74.74,0,0,0,.78.24l1.76-.44c.34-.09.36-.13.37-.51a.07.07,0,0,0,0,0,12,12,0,0,1,.4-3.38,32.37,32.37,0,0,1,2.62-7,9.47,9.47,0,0,1,.71-1.18c.3-.46.63-.9,1-1.35a12.31,12.31,0,0,1,2.72-2.72A6.81,6.81,0,0,1,126,38.53a2.71,2.71,0,0,1,3.31,1.66,4.67,4.67,0,0,1,.18.64,13.46,13.46,0,0,1,.16,2.69q0,.3-.06.6c-.28,1.52-.61,3-1,4.51-.33,1.23-.76,2.42-1.21,3.61-.06.17-.12.34-.17.52a.1.1,0,0,0,.13.12,17.9,17.9,0,0,0,2.12-.77c.1,0,.19-.12.29-.16a.87.87,0,0,0,.44-.6,8.06,8.06,0,0,1,.29-1.07,43.46,43.46,0,0,1,1.84-4.48c.22-.44.43-.89.65-1.33a1.16,1.16,0,0,0,0-1c0-.11-.09-.2-.13-.31-1-2.16-2.06-4.26-3.23-6.32a16.43,16.43,0,0,0-.94-1.5,39.05,39.05,0,0,0-4.54-5.24,15.93,15.93,0,0,0-4-2.72,3.11,3.11,0,0,0-1.09-.36l-1.81-.18ZM128.25,4.15a1.67,1.67,0,0,0-.33,0,18.37,18.37,0,0,0-2.84.69A45.87,45.87,0,0,0,119.93,7l-.65.29a20.53,20.53,0,0,0-2.61,1.31c-1.8,1.06-3.69,2-5.41,3.2l-.14.08A20.72,20.72,0,0,0,109,13.33l-.3.23a40.18,40.18,0,0,0-3.48,2.63,4,4,0,0,1-.39.3,8.09,8.09,0,0,0-.84.71c-.95.87-1.88,1.75-2.75,2.7s-1.77,1.87-2.6,2.85c-.33.4-.64.81-1,1.2a39.35,39.35,0,0,0-3,4.16c0,.05-.06.1,0,.15s.1,0,.16,0A28.83,28.83,0,0,1,98.07,27l3.05-1A38.22,38.22,0,0,1,105.61,25c1-.18,2-.37,3-.6.57-.13,1.15-.24,1.72-.34,1.49-.26,3-.43,4.48-.59a23.5,23.5,0,0,1,5.56,0,8.08,8.08,0,0,1,3.54,1.3A12.85,12.85,0,0,1,126.52,27l.11.12a.21.21,0,0,0,.3,0c.16-.15.32-.3.47-.46a9.94,9.94,0,0,1,2.08-1.8l.32-.21a.31.31,0,0,0,.1-.35,1,1,0,0,0-.69-.78c-.2-.05-.39-.12-.58-.18s-.63-.2-.94-.32a3.27,3.27,0,0,1-1.92-1.93,4.49,4.49,0,0,1-.31-2,6.94,6.94,0,0,1,.93-3.2,11.6,11.6,0,0,1,3.26-3.54,26.54,26.54,0,0,1,3.12-1.87l1.6-.85c.15-.09.18-.18.09-.32A18.13,18.13,0,0,0,132,6.08a7.43,7.43,0,0,0-2.33-1.63A3.28,3.28,0,0,0,128.25,4.15ZM47.62,34.27c0-.4,0-.81.1-1.21a2.26,2.26,0,0,1,.59-1.22.73.73,0,0,1,1.25.34,3.15,3.15,0,0,1,.1.81,7.39,7.39,0,0,0,.41,2.38,4,4,0,0,0,1.47,2,.78.78,0,0,0,.34.17.35.35,0,0,0,.44-.31,1.62,1.62,0,0,0,0-.49A3.76,3.76,0,0,0,51.51,35a5.1,5.1,0,0,1-.57-.88,1.35,1.35,0,0,1-.16-.69.7.7,0,0,1,.78-.73,1.48,1.48,0,0,1,.68.19,3.91,3.91,0,0,1,2,2.48c.08.26.13.53.2.8s.12.3.38.23a6.07,6.07,0,0,1,2.78,0,6.27,6.27,0,0,1,3,1.38,11.73,11.73,0,0,1,1.37,1.36c.11.13.24.12.31,0,.23-.42.45-.84.67-1.27a.4.4,0,0,0-.07-.46l-.23-.24L61.46,36a31.26,31.26,0,0,0-3.4-3.21,49.31,49.31,0,0,0-10.35-6.46,10.57,10.57,0,0,0-2.46-.8,7.34,7.34,0,0,0-1.75-.13,2.13,2.13,0,0,0-1.82,1.07,8.82,8.82,0,0,0-1,2,53.91,53.91,0,0,0-1.53,5.74c-.23,1.19-.52,2.37-.68,3.57-.09.71-.14.69.52,1.18,1,.73,2,1.48,2.9,2.28l.18.14a.3.3,0,0,0,.4,0c.12-.08.23-.18.35-.27a10.06,10.06,0,0,1,.83-.63,5.31,5.31,0,0,1,3.71-.92l.6.08a3.73,3.73,0,0,0,1.37-.11,1.3,1.3,0,0,0,.5-.21.14.14,0,0,0,0-.23,2.16,2.16,0,0,1-.61-.47,7,7,0,0,1-1-1.56A6.88,6.88,0,0,1,47.62,34.27Zm0,7.84a5,5,0,0,0-1.88.46A3.46,3.46,0,0,0,44.19,44a5.49,5.49,0,0,0-.66,3A8.67,8.67,0,0,0,45,51.44a9.07,9.07,0,0,0,1.81,1.85c.17.14.29.18.47,0a1.88,1.88,0,0,1,.36-.33,2.83,2.83,0,0,1,2.13-.56,3.14,3.14,0,0,1,1.27.52,7.33,7.33,0,0,1,1.52,1.26l.35.36a.24.24,0,0,0,.3,0,6.31,6.31,0,0,0,.63-.34c.88-.57,1.8-1.08,2.72-1.58l.63-.33a1,1,0,0,0,.55-.71c.05-.29.13-.57.2-.86a42.16,42.16,0,0,1,1.63-5.49c.28-.76.54-1.52.82-2.28a.71.71,0,0,0,0-.68,7.86,7.86,0,0,0-1.84-2.18,4.61,4.61,0,0,0-1.24-.7,2.92,2.92,0,0,0-2.69.31c-.23.16-.44.33-.66.5s-.33.29-.51.43a7,7,0,0,1-4.71,1.55Zm23-17.06a4.64,4.64,0,0,0-.76.11,6.24,6.24,0,0,0-2.41,1.18A12.87,12.87,0,0,0,65,28.83,23.71,23.71,0,0,0,63.49,31,7.52,7.52,0,0,0,63,32a.44.44,0,0,0,.09.51l.22.24,1.53,1.51.08.07a.25.25,0,0,0,.39,0c.2-.2.38-.41.56-.61a7.15,7.15,0,0,1,2.93-2,4.15,4.15,0,0,1,2-.16,2,2,0,0,1,1,.5A3.39,3.39,0,0,1,73,34.12a10.09,10.09,0,0,1-.08,3.29c-.14.76-.3,1.52-.47,2.27-.28,1.33-.56,2.66-.87,4-.17.69-.41,1.37-.61,2.06a.8.8,0,0,0,0,.26.1.1,0,0,0,.1.11.93.93,0,0,0,.37-.1c.34-.13.69-.26,1-.37l4-1.29a.8.8,0,0,0,.56-.54,11.65,11.65,0,0,1,1.44-3,18,18,0,0,1,3.44-4l.17-.15c.19-.19.2-.29.06-.53l-.21-.32c-.5-.73-1-1.46-1.51-2.18A42.93,42.93,0,0,0,76,28.33a15,15,0,0,0-3.8-2.79A3.73,3.73,0,0,0,70.53,25.05Zm11.09-8.78-.71.07a6,6,0,0,0-3.33,1.82A17,17,0,0,0,76,20.06a10.74,10.74,0,0,0-1.21,2c-.14.31-.26.64-.38,1a.32.32,0,0,0,.13.39c.21.15.42.3.64.43a15.94,15.94,0,0,1,2.63,2c.36.34.71.7,1.08,1a25.1,25.1,0,0,1,2.85,3,42.53,42.53,0,0,1,2.71,3.82c.07.12.14.26.22.38a.14.14,0,0,0,.23,0L85,34a28.08,28.08,0,0,1,3.88-2.62,1.78,1.78,0,0,0,.87-1.07,12.37,12.37,0,0,1,1-2.26c.33-.58.67-1.15,1-1.72a7.22,7.22,0,0,0,.41-.78.2.2,0,0,0-.17-.31l-.44,0c-.68,0-1.36,0-2-.08a12.54,12.54,0,0,1-4-.88,5.07,5.07,0,0,1-2.33-1.8A2.35,2.35,0,0,1,83,19.75a4.38,4.38,0,0,1,1.65-1.66l.38-.23c.16-.11.16-.23,0-.35l-.22-.16a8.31,8.31,0,0,0-2.33-1A3.28,3.28,0,0,0,81.62,16.27Zm52.68,7.18a7,7,0,0,1,3.11.65l.35.15c.34.13.44.11.64-.2a18.14,18.14,0,0,0,1.23-2l1.7-3.21a29.81,29.81,0,0,0,2.82-7.33,18.34,18.34,0,0,0,.55-3q0-.63,0-1.26c0-.38-.19-.46-.49-.27l-.32.23c-.29.23-.56.47-.86.68a33.58,33.58,0,0,1-4.12,2.65,3.7,3.7,0,0,0-.43.25c-.78.45-1.56.9-2.37,1.28a26.29,26.29,0,0,0-4.06,2.32,8.67,8.67,0,0,0-2.55,2.84,3.3,3.3,0,0,0-.37,2,2,2,0,0,0,1.5,1.72A5.72,5.72,0,0,0,132,21a.76.76,0,0,1,.82.6c.07.23.13.46.19.69s.14.6.23.9.15.3.4.28Zm19.07-17a5.54,5.54,0,0,0-2.33.59c-.52.27-1,.55-1.55.84a10.58,10.58,0,0,0-1.35.95,1.34,1.34,0,0,0-.54,1,16.22,16.22,0,0,1-.91,4.24l-.9,2.31c-.1.27-.2.55-.31.83a.62.62,0,0,0,0,.53c.13.26.27.52.42.77l.67,1.14,2,3.5a3.54,3.54,0,0,0,.19.33.27.27,0,0,0,.42.11,7.11,7.11,0,0,0,.62-.46A22.31,22.31,0,0,1,153,21c.62-.37,1.24-.73,1.83-1.12a37.83,37.83,0,0,1,4.5-2.57c.8-.39.69-.43.51-1.15a18,18,0,0,0-.88-2.66c-.24-.57-.5-1.14-.71-1.73a23.76,23.76,0,0,0-1.12-2.4,6.48,6.48,0,0,0-1.16-1.6,4.18,4.18,0,0,0-1.7-1.09A3.08,3.08,0,0,0,153.37,6.49ZM134,27.11a3.49,3.49,0,0,0-2,.62,9.06,9.06,0,0,0-2.14,2.05l-.21.32a.29.29,0,0,0,0,.32l.18.27c.37.48.74,1,1.12,1.43a16.8,16.8,0,0,1,1,1.38c.44.68,2.69,4.82,3,5.56,0,0,0,0,0,0s.05.38.26.38.21-.2.28-.32c.48-.76.95-1.53,1.42-2.29A35.35,35.35,0,0,1,140,32.59c.41-.47.8-1,1.19-1.45.17-.22.16-.29-.06-.46-.8-.61-1.61-1.22-2.42-1.81a10.25,10.25,0,0,0-3.29-1.51A6,6,0,0,0,134,27.11ZM27.06,23.74a3,3,0,0,0-2.24.85,5.72,5.72,0,0,0-1.34,1.8c-.35.73-.69,1.46-1,2.2-.15.33-.29.67-.41,1s-.05.36.21.47l1.08.43a52.35,52.35,0,0,1,5,2.16l.2.09a.3.3,0,0,0,.36,0,1.07,1.07,0,0,0,.16-.14,17.81,17.81,0,0,1,3.34-2.32,10.46,10.46,0,0,1,1.7-.78l.26-.1c.17-.08.21-.19.11-.35a9.08,9.08,0,0,0-1.33-1.75,20.62,20.62,0,0,0-3.42-2.68A6,6,0,0,0,27.06,23.74ZM69.89,36.21a2.85,2.85,0,0,0-.07-.82.46.46,0,0,0-.68-.34,1.22,1.22,0,0,0-.41.27,6.2,6.2,0,0,0-.84.86,17,17,0,0,0-1.55,2.15,38.08,38.08,0,0,0-2.61,5.28c-.38,1-.73,2-1.09,2.94a16,16,0,0,0-.73,2.54c0,.22-.09.43-.13.65s.08.2.21.15l.3-.14c1-.51,2.1-1,3.18-1.39l.76-.31a.91.91,0,0,0,.57-.56c.33-.85.7-1.69,1-2.57.73-2.26,1.22-4.58,1.84-6.86A6.78,6.78,0,0,0,69.89,36.21Zm49.51,19a7.26,7.26,0,0,0,.1.72.76.76,0,0,0,1,.66,1.69,1.69,0,0,0,1-.6,10.2,10.2,0,0,0,.73-1.23,55.13,55.13,0,0,0,3-6.27,20.07,20.07,0,0,0,1.28-4.43,2.44,2.44,0,0,0,0-1.2.55.55,0,0,0-.75-.43,2.12,2.12,0,0,0-1,.58,8.88,8.88,0,0,0-1.29,1.64,33.36,33.36,0,0,0-2.17,4.2,44.56,44.56,0,0,0-1.49,4.2A10.71,10.71,0,0,0,119.4,55.21Zm70.36-20.06a.54.54,0,0,0-.45-.62,1.6,1.6,0,0,0-.44,0,8.35,8.35,0,0,0-1.31.15c-.85.14-1.7.3-2.56.4-1.25.16-2.51.32-3.78.36h-.05a.22.22,0,0,0-.2.16,1.43,1.43,0,0,0,0,.22c-.21.89-.4,1.79-.67,2.67s-.47,1.62-.7,2.43a1.66,1.66,0,0,0-.06.21c0,.12,0,.19.14.17l.54-.11a19.61,19.61,0,0,0,2.39-.65,14.27,14.27,0,0,0,6.15-3.74c.26-.28.51-.57.75-.88A1.07,1.07,0,0,0,189.76,35.15Zm-124.1-12a1.23,1.23,0,0,0-.11-.26,8.76,8.76,0,0,0-1.19-1.65,2,2,0,0,0-.56-.43.81.81,0,0,0-.74,0,2.28,2.28,0,0,0-.74.47,9.57,9.57,0,0,0-.77.79,12.44,12.44,0,0,1-1.07,1.11A16.83,16.83,0,0,1,56.36,26a2.68,2.68,0,0,0-.61.37.16.16,0,0,0,0,.24c.3.21.6.42.91.62s.9.58,1.32.9l1.72,1.3c.09.06.17.13.27.19s.3.11.43-.06.35-.47.51-.72a22.18,22.18,0,0,1,2.79-3.54c.58-.59,1.13-1.21,1.76-1.75A.48.48,0,0,0,65.66,23.17ZM91.59,12.58a3.81,3.81,0,0,0-1.94.53A17,17,0,0,0,88,14.36a.14.14,0,0,0,0,.23l.83.72c.4.36.79.73,1.17,1.09a1,1,0,0,0,.69.31l1.92.13a8.43,8.43,0,0,1,2.1.43,21.83,21.83,0,0,1,2.19.89l.55.25a.34.34,0,0,0,.45-.08c.37-.38.74-.76,1.1-1.16.13-.13.13-.24,0-.39a3.55,3.55,0,0,0-.38-.4,22.91,22.91,0,0,0-2.88-2.21,10.6,10.6,0,0,0-2.93-1.37A5.37,5.37,0,0,0,91.59,12.58ZM55.25,68a5.82,5.82,0,0,0-.06-.64,19.73,19.73,0,0,0-.71-2.82c-.38-1.11-.89-2.17-1.32-3.26a30.1,30.1,0,0,0-1.38-3,6.24,6.24,0,0,0-1.55-1.91,1.78,1.78,0,0,0-.36-.25c-.35-.19-.58-.11-.73.27a2.34,2.34,0,0,0-.1,1.36c.15.71.3,1.43.49,2.14a29.93,29.93,0,0,0,2,5.33,13.63,13.63,0,0,0,1.93,2.93,3.49,3.49,0,0,0,.43.43,1.2,1.2,0,0,0,.65.26.53.53,0,0,0,.61-.44A2.08,2.08,0,0,0,55.25,68ZM104.62,9.32H101a5.91,5.91,0,0,0-.6,0,.74.74,0,0,0-.66.59,2,2,0,0,0-.06.81,3.18,3.18,0,0,0,.85,1.58,6.54,6.54,0,0,0,1.52,1.25.53.53,0,0,0,.74,0c.14-.13.29-.22.44-.34l2-1.53,2.61-2,.34-.28a.13.13,0,0,0,0-.1.26.26,0,0,0-.12-.09,1.31,1.31,0,0,0-.28,0ZM91.43,22.48a16.66,16.66,0,0,0,2.18-.12,1.72,1.72,0,0,0,1.23-.64c.16-.21.33-.4.48-.6s.14-.3,0-.48a2.24,2.24,0,0,0-.92-.47,13.12,13.12,0,0,0-3-.43,14.89,14.89,0,0,0-3.88.3,4,4,0,0,0-1.48.57.45.45,0,0,0-.06.75,1.68,1.68,0,0,0,.56.34,7.38,7.38,0,0,0,1.31.41A18.09,18.09,0,0,0,91.43,22.48ZM146,26.3a.52.52,0,0,0-.13-.37l-2-3.13a1.77,1.77,0,0,0-.16-.22c-.14-.16-.24-.16-.34,0a12.54,12.54,0,0,0-.71,1.42,12.21,12.21,0,0,1-.78,1.58c-.11.19-.21.39-.31.58s-.06.22.08.33a3.65,3.65,0,0,0,.31.24,12.75,12.75,0,0,1,1.39,1.16l.17.14c.19.15.29.16.49,0l1.77-1.48a.43.43,0,0,0,.11-.12A.49.49,0,0,0,146,26.3ZM32,34.42c0,.1.11.14.19.19l2.41,1.45a.66.66,0,0,0,.19.09.14.14,0,0,0,.19-.07,2.15,2.15,0,0,0,.11-.36c.12-.5.23-1,.35-1.5s.24-1,.36-1.45l.06-.21c0-.21-.07-.3-.29-.23a1.73,1.73,0,0,0-.32.11c-.51.24-1,.47-1.54.72a6.73,6.73,0,0,0-1.38.91A.93.93,0,0,0,32,34.42ZM47.1,62.82l-.2.1a4.77,4.77,0,0,0-1.26,1.35.92.92,0,0,0-.13.36.53.53,0,0,0,.3.64l.26.1,2.34.59a.15.15,0,0,0,.19,0,.2.2,0,0,0,0-.15c-.51-.91-1-1.86-1.37-2.81A1.42,1.42,0,0,0,47.1,62.82Z"></path>
      <path d="M73.45,171.29a4.85,4.85,0,0,1-.66,0,1,1,0,0,1-.75-1.46,1.57,1.57,0,0,1,.45-.54,3.88,3.88,0,0,1,.81-.47,23.47,23.47,0,0,1,3-1.05l7.35-2.13c1.87-.54,3.73-1.12,5.61-1.63s3.62-1.09,5.44-1.61c10.63-3.07,21.24-6.24,31.9-9.27,3.23-.91,6.44-1.91,9.67-2.84,8.32-2.41,16.66-4.79,25-7.2,3.77-1.1,7.53-2.25,11.3-3.36,4-1.16,7.93-2.32,11.91-3.43a9.09,9.09,0,0,1,2-.34,2.2,2.2,0,0,1,1,.2,1,1,0,0,1,.56,1.38,1.78,1.78,0,0,1-.59.79,4.23,4.23,0,0,1-.89.54,9.31,9.31,0,0,1-1.45.53c-2.59.69-5.15,1.49-7.72,2.24q-19.32,5.58-38.65,11.12-13.77,3.93-27.53,7.91l-5.56,1.59q-10.14,2.91-20.27,5.82c-3.25.94-6.49,1.91-9.73,2.86A7.59,7.59,0,0,1,73.45,171.29Z"></path>
      <path d="M60.19,170.59a8.36,8.36,0,0,1-2.31-.53l-15.35-6.14L19,154.53c-2.63-1.05-5.25-2.11-7.89-3.13a33.5,33.5,0,0,1-3-1.43,2.23,2.23,0,0,1-1-1.1,1,1,0,0,1,0-.7.9.9,0,0,1,.58-.62,1.9,1.9,0,0,1,1.08-.1,20.51,20.51,0,0,1,3.53,1.06l15.19,6.07,7,2.83c.34.13.67.29,1,.44l.35.16c3.05,1.13,6,2.4,9.06,3.6l14,5.57a11,11,0,0,1,1.79.95,2.91,2.91,0,0,1,1,1.11.83.83,0,0,1-.39,1.2A1.87,1.87,0,0,1,60.19,170.59Z"></path>
      <path d="M73,82.64l-.93,0a1.45,1.45,0,0,1-.67-.23,1,1,0,0,1-.24-1.58,2.43,2.43,0,0,1,.87-.65,6.46,6.46,0,0,1,1.09-.39l4.41-1.23c6.83-1.94,13.72-3.7,20.59-5.52l14.48-3.84c5.32-1.41,10.66-2.78,16-4.24,6.18-1.7,12.38-3.32,18.57-5,5-1.36,10.08-2.68,15.11-4,4.1-1.1,8.18-2.24,12.28-3.35,2.58-.71,5.17-1.39,7.76-2.08a9.87,9.87,0,0,1,1.51-.31,4.89,4.89,0,0,1,1.21,0,1.62,1.62,0,0,1,.87.32.88.88,0,0,1,.35,1,1.81,1.81,0,0,1-.86,1.22,9,9,0,0,1-2,.89c-1.84.58-3.72,1-5.58,1.54q-7.27,2-14.57,3.91-7,1.88-14,3.71C145.1,63.82,141,64.92,136.83,66q-4.28,1.09-8.5,2.33c-2.1.62-4.23,1.11-6.34,1.67l-15.77,4.17L82.94,80.26,76.61,82a24.11,24.11,0,0,1-2.52.56C73.71,82.58,73.32,82.61,73,82.64Z"></path>
      <path d="M73.52,96.76c-.23,0-.53,0-.82-.05A.94.94,0,0,1,72,95.35a1.59,1.59,0,0,1,.43-.5,4.8,4.8,0,0,1,1.28-.74A46.41,46.41,0,0,1,78.8,92.4c6.43-1.76,12.86-3.52,19.28-5.33,6.94-1.95,13.91-3.81,20.86-5.76,5.36-1.49,10.73-3,16.09-4.46,6.75-1.9,13.52-3.72,20.28-5.59l25.47-7.1a23.06,23.06,0,0,1,2.73-.65q.57-.1,1.14-.18a2.22,2.22,0,0,1,1.08.14,1,1,0,0,1,.67,1.18,1.39,1.39,0,0,1-.35.68,2.93,2.93,0,0,1-.56.44,11.77,11.77,0,0,1-1.82.79c-3.62,1.1-7.26,2.11-10.91,3.12l-22.24,6.17c-5.32,1.47-10.66,2.91-16,4.37-3.86,1.06-7.71,2.15-11.57,3.22L95.67,91l-16.93,4.7c-.78.21-1.55.46-2.33.66s-1.33.27-2,.39C74.14,96.75,73.86,96.74,73.52,96.76Z"></path>
      <path d="M9,75.85a4.58,4.58,0,0,1,1.06.15,10.35,10.35,0,0,1,1.54.43C16,78,20.39,79.63,24.78,81.2c7.19,2.57,14.4,5.1,21.59,7.66,4.17,1.49,8.32,3,12.48,4.53a5.81,5.81,0,0,1,1.11.5,2.68,2.68,0,0,1,.79.67,1.4,1.4,0,0,1,0,1.74,1.1,1.1,0,0,1-1.05.44,12.32,12.32,0,0,1-3-.72q-13.18-4.84-26.38-9.66L11.49,79.54A17.19,17.19,0,0,1,9,78.36a2,2,0,0,1-1-1,1.32,1.32,0,0,1-.09-.76A.8.8,0,0,1,8.36,76,1.47,1.47,0,0,1,9,75.85Z"></path>
      <path d="M60.55,81.9a4.08,4.08,0,0,1-.93-.12,27.61,27.61,0,0,1-3.45-1q-5.85-2-11.71-4c-8.63-2.92-17.22-6-25.82-8.94-2.5-.87-5-1.72-7.5-2.57a7.86,7.86,0,0,1-2.27-1.11,1.89,1.89,0,0,1-.59-.78,1.16,1.16,0,0,1-.08-.32.75.75,0,0,1,.48-.89A2.29,2.29,0,0,1,10,62a7.4,7.4,0,0,1,1.39.33c6,2.11,12,4.1,18,6.16,6.66,2.29,13.36,4.51,20,6.73,2.89,1,5.77,2,8.65,3,.5.17,1,.32,1.51.52a9.92,9.92,0,0,1,1.7.91,1.92,1.92,0,0,1,.64.66,1,1,0,0,1-.53,1.53,1.58,1.58,0,0,1-.37.11C60.88,81.89,60.71,81.89,60.55,81.9Z"></path>
      <path d="M78.65,68.05a6.14,6.14,0,0,1,.23-1.54,35.56,35.56,0,0,1,1.63-4.79c.52-1.23,1.07-2.45,1.62-3.67.67-1.49,1.4-3,2.21-4.38a35.31,35.31,0,0,1,2.39-3.82,17.53,17.53,0,0,1,1.17-1.39,2.67,2.67,0,0,1,1.3-.8,1.13,1.13,0,0,1,.32,0A.54.54,0,0,1,90,48a.86.86,0,0,1,.06.59,2.34,2.34,0,0,1-.24.62c-.2.39-.41.78-.62,1.16-.59,1.06-1.16,2.13-1.68,3.22l-.27.54c-1.91,3.49-3.49,7.12-5.12,10.73-.44,1-.78,2-1.15,3a3.06,3.06,0,0,1-.66,1.13,1.27,1.27,0,0,1-.56.35.75.75,0,0,1-1.08-.58A5.9,5.9,0,0,1,78.65,68.05Z"></path>
      <path d="M71.69,55.54a3.09,3.09,0,0,1-1.09-.11,1.4,1.4,0,0,1-.94-2,2.94,2.94,0,0,1,1-1.23A7.76,7.76,0,0,1,72,51.42a10.62,10.62,0,0,1,2.61-1,3.33,3.33,0,0,1,1.85,0,1.58,1.58,0,0,1,1.06,1.34,1.54,1.54,0,0,1-.9,1.46,1.1,1.1,0,0,1-.53.11.33.33,0,0,1-.36-.34,1.65,1.65,0,0,1,0-.32,2.62,2.62,0,0,0,.09-.38c0-.27-.09-.41-.37-.39a2.32,2.32,0,0,0-.38.07,13.49,13.49,0,0,0-2.5,1,2.21,2.21,0,0,0-.71.51.22.22,0,0,0,.1.36,1,1,0,0,0,.55,0c.5-.11,1-.22,1.5-.35a2.85,2.85,0,0,1,.92-.09.39.39,0,0,1,.38.53,1.23,1.23,0,0,1-.7.87,5.92,5.92,0,0,1-2.47.71Z"></path>
      <path d="M72.71,64.24a4.72,4.72,0,0,1-1.22-.2,1.63,1.63,0,0,1-1.09-1.56A2.76,2.76,0,0,1,71,60.81a4.6,4.6,0,0,1,3.24-1.66,1.3,1.3,0,0,1,1,.32.66.66,0,0,1,.24.48.37.37,0,0,1-.34.43,6,6,0,0,0-2.09.81,1.34,1.34,0,0,0-.56.52c-.19.31-.09.54.27.59A2.07,2.07,0,0,0,74,62.14a7.37,7.37,0,0,0,.87-.48c.37-.24.71-.51,1.06-.78a1.86,1.86,0,0,0,.49-.59,1.72,1.72,0,0,1,.36-.49,1.2,1.2,0,0,1,.21-.17.57.57,0,0,1,.94.41,1.81,1.81,0,0,1-.14,1.08,3.8,3.8,0,0,1-1.41,1.78,8.58,8.58,0,0,1-3.25,1.3Z"></path>
      <path d="M148,50.18a2.35,2.35,0,0,1,.5-1.25,7.79,7.79,0,0,1,.64-.76l2.39-2.52c.48-.51,1-1,1.46-1.5,1.65-1.6,3.23-3.26,4.81-4.93.8-.86,1.62-1.7,2.44-2.54A67.34,67.34,0,0,0,165,31.19c.73-.93,1.41-1.92,2.11-2.89,1.25-1.7,2.34-3.51,3.5-5.28.54-.83,1.14-1.62,1.71-2.43a3.87,3.87,0,0,1,.68-.72.8.8,0,0,1,.92-.14.59.59,0,0,1,.33.42,1.4,1.4,0,0,1,0,.54,7.09,7.09,0,0,1-.72,2.3A22.06,22.06,0,0,1,172,25.6c-1,1.43-2,2.81-3,4.22-.46.64-.9,1.29-1.35,1.94-.2.27-.39.54-.6.79-.45.55-.87,1.14-1.27,1.73-.25.37-.52.71-.8,1l-1.87,2.24c-.24.28-.49.56-.74.82-1.44,1.5-2.86,3-4.32,4.49s-2.53,2.76-3.85,4.09a39.85,39.85,0,0,1-3.26,3,6.32,6.32,0,0,1-1.72,1,2.09,2.09,0,0,1-.43.11C148.26,51.09,148,50.82,148,50.18Z"></path>
      <path d="M161.3,47.76a5.18,5.18,0,0,1-.87-.11,2.22,2.22,0,0,1-1.62-2.17,3.53,3.53,0,0,1,3.66-3.41,1.1,1.1,0,0,1,.76.26.41.41,0,0,1,0,.63.85.85,0,0,1-.42.24,4.81,4.81,0,0,0-1.55.82,1.76,1.76,0,0,0-.7,1,.79.79,0,0,0,1,1,1.61,1.61,0,0,0,.58-.3,4.28,4.28,0,0,0,1.31-1.67c.08-.17.15-.34.24-.5a.53.53,0,0,1,.51-.27.5.5,0,0,1,.43.38,2,2,0,0,1,0,1.09,4.13,4.13,0,0,1-1.53,2.42A3.14,3.14,0,0,1,161.3,47.76Z"></path>
      <path d="M173.33,33.82a2.58,2.58,0,0,1-.93-.13,1.69,1.69,0,0,1-1.24-1.28,2.81,2.81,0,0,1,.18-1.89,1.77,1.77,0,0,1,.51-.64,1,1,0,0,1,.4-.18.6.6,0,0,1,.71.68,5.11,5.11,0,0,1-.13.53,3.16,3.16,0,0,0-.11.6c0,.67.42.94,1,.64a2.15,2.15,0,0,0,1-.95,1.58,1.58,0,0,0,.17-1,.35.35,0,0,0-.46-.34c-.13,0-.25.08-.37.1a.5.5,0,0,1-.6-.37.8.8,0,0,1,.07-.69,1.18,1.18,0,0,1,.53-.46,1.73,1.73,0,0,1,2.34,1,2.73,2.73,0,0,1,.12,1.3,3.8,3.8,0,0,1-1.56,2.63A2.47,2.47,0,0,1,173.33,33.82Z"></path>
      <path d="M173.33,39.71a3.23,3.23,0,0,1-1.48,2.91,2.39,2.39,0,0,1-1.94.39,1.33,1.33,0,0,1-.74-.45,2.76,2.76,0,0,1,.21-3.7,1.35,1.35,0,0,1,.73-.37.51.51,0,0,1,.54.19.5.5,0,0,1,0,.57c-.07.12-.17.24-.24.37a1.76,1.76,0,0,0-.27,1.05,1.51,1.51,0,0,0,.07.37.44.44,0,0,0,.58.28,1.51,1.51,0,0,0,1-1.52,3.73,3.73,0,0,0-.34-1,2.45,2.45,0,0,1-.21-.57c-.07-.53.13-.76.68-.74a1.08,1.08,0,0,1,.74.31,2.18,2.18,0,0,1,.69,1.4C173.32,39.34,173.32,39.53,173.33,39.71Z"></path>
      <path d="M25.87,58a2.24,2.24,0,0,1-.09.83.67.67,0,0,1-1,.39,1.65,1.65,0,0,1-.64-.59,6.38,6.38,0,0,1-.38-.67c-.47-1-.93-2.08-1.34-3.14-.54-1.41-1.21-2.76-1.87-4.11S19.31,48.25,18.7,47a33.5,33.5,0,0,0-2.16-3.71l-1.16-1.74c-.72-1.07-1.32-2.21-1.94-3.33a12.87,12.87,0,0,1-.84-1.55c-.09-.22-.18-.44-.25-.67a1.64,1.64,0,0,1-.07-.76.79.79,0,0,1,1.09-.67A1.7,1.7,0,0,1,14,35a7,7,0,0,1,.52.57,38.09,38.09,0,0,1,3,4.39c.06.11.13.22.2.33A76.5,76.5,0,0,1,23.86,52l1.26,3a10.92,10.92,0,0,1,.68,2.44C25.84,57.64,25.86,57.88,25.87,58Z"></path>
      <path d="M31.93,47.47a2.7,2.7,0,0,1-.53,1.71,1.93,1.93,0,0,1-1.88.79,4.73,4.73,0,0,1-2.87-1.39,6.47,6.47,0,0,1-1.85-3.49,3.58,3.58,0,0,1,.07-1.69,1.69,1.69,0,0,1,1.29-1.29,1.9,1.9,0,0,1,1.86.56,2.24,2.24,0,0,1,.44.7.92.92,0,0,1,.06.43.29.29,0,0,1-.28.29,1,1,0,0,1-.53-.1.34.34,0,0,0-.49.21,1,1,0,0,0-.07.59,3.18,3.18,0,0,0,.43,1.12,7.51,7.51,0,0,0,1,1.25,2,2,0,0,0,.77.52c.39.13.68-.11.59-.51a6.15,6.15,0,0,0-.29-.82,4.56,4.56,0,0,1-.3-1,1.75,1.75,0,0,1,0-.32.54.54,0,0,1,.59-.53,1.55,1.55,0,0,1,.76.29,3.08,3.08,0,0,1,1.14,1.77A7.57,7.57,0,0,1,31.93,47.47Z"></path>
      <path d="M40.34,56.29c0,.16,0,.4-.08.64a1.8,1.8,0,0,1-2,1.44,3.55,3.55,0,0,1-2.17-1.1A7.68,7.68,0,0,1,34.18,54a2.29,2.29,0,0,1-.06-1.19,1.46,1.46,0,0,1,1.66-1.19.71.71,0,0,1,.67.56c.07.41,0,.58-.34.72s-.36.23-.28.59a3.38,3.38,0,0,0,.31.82A5.85,5.85,0,0,0,37.39,56a2,2,0,0,0,.45.31.6.6,0,0,0,.67,0,.57.57,0,0,0,.17-.6,2.66,2.66,0,0,0-.1-.38,6.43,6.43,0,0,0-1-1.86L37.18,53a1,1,0,0,1-.18-.73.44.44,0,0,1,.43-.42,1.36,1.36,0,0,1,.74.18,2.8,2.8,0,0,1,.91.8,5.53,5.53,0,0,1,1.26,3.47Z"></path>
      <path d="M107.69,47.15a3.1,3.1,0,0,1,0-.34,18.32,18.32,0,0,1,1.51-5.16c.63-1.35,1.29-2.68,2-4s1.38-2.59,2.14-3.84A25.17,25.17,0,0,1,116,30.23a5.31,5.31,0,0,1,.65-.6,2,2,0,0,1,.83-.39.8.8,0,0,1,1.11.83,3,3,0,0,1-.25,1.18,6,6,0,0,1-.54,1c-1.27,1.91-2.47,3.86-3.56,5.88-.48.89-.9,1.81-1.38,2.7-.71,1.33-1.33,2.7-1.92,4.08-.42,1-.76,2-1.15,3a4.59,4.59,0,0,1-.27.6.78.78,0,0,1-1,.32,1.13,1.13,0,0,1-.58-.56A2.2,2.2,0,0,1,107.69,47.15Z"></path>
      <path d="M104.76,33.65a11.66,11.66,0,0,0,2.8-.53,1.4,1.4,0,0,0,.57-.32.3.3,0,0,0-.06-.51c-.12-.07-.27-.1-.4-.16a1,1,0,0,1-.39-.2.45.45,0,0,1,0-.75,1.83,1.83,0,0,1,.24-.13,2.12,2.12,0,0,1,2.38.8,1.24,1.24,0,0,1,0,1.4,3.22,3.22,0,0,1-1.58,1.24,11,11,0,0,1-1.15.37,9.06,9.06,0,0,1-1.94.34,4,4,0,0,1-2-.32,1.37,1.37,0,0,1-.43-2.34,2.43,2.43,0,0,1,1.18-.68,1.62,1.62,0,0,1,.49,0,.42.42,0,0,1,.42.29.43.43,0,0,1-.18.44l-.3.23a1.18,1.18,0,0,0-.35.42.26.26,0,0,0,.2.41Z"></path>
      <path d="M94.92,40.22A4.93,4.93,0,0,1,93.35,40a3.17,3.17,0,0,1-1.18-.68,1.44,1.44,0,0,1-.21-2,2.44,2.44,0,0,1,.89-.8A4.33,4.33,0,0,1,95,36a1.12,1.12,0,0,1,.62.18.53.53,0,0,1,.25.35.35.35,0,0,1-.24.43,3.74,3.74,0,0,1-.48.12l-1,.24a.87.87,0,0,0-.52.38.48.48,0,0,0,.09.65,1.27,1.27,0,0,0,.64.3,3.92,3.92,0,0,0,1.95-.17A1.57,1.57,0,0,0,97.46,37a3.35,3.35,0,0,1,.08-.54.47.47,0,0,1,.6-.41.76.76,0,0,1,.53.35,1.5,1.5,0,0,1,.2.57,2.13,2.13,0,0,1-.55,1.78A4.5,4.5,0,0,1,94.92,40.22Z"></path>
      <path d="M120.5,21a16.72,16.72,0,0,1,.91-4.75c.43-1.38,1-2.74,1.48-4.08a19.07,19.07,0,0,1,3-5.14,2.57,2.57,0,0,1,.63-.6,1.54,1.54,0,0,1,.45-.21.69.69,0,0,1,.94.57,2.09,2.09,0,0,1,0,.93A5,5,0,0,1,127.26,9c-.43.76-.85,1.54-1.21,2.34-.94,2.14-1.73,4.33-2.49,6.53a18.33,18.33,0,0,0-.64,3c0,.27-.09.54-.14.81a1.65,1.65,0,0,1-.29.71,1,1,0,0,1-1.64,0,1.76,1.76,0,0,1-.35-1C120.49,21.32,120.5,21.15,120.5,21Z"></path>
      <path d="M105.17,24l-.47,0a1.65,1.65,0,0,1-1.41-1.07,2.38,2.38,0,0,1,0-1.78,4.06,4.06,0,0,1,3.25-2.73,1.89,1.89,0,0,1,1,.11.87.87,0,0,1,.41.27.58.58,0,0,1-.1.87c-.22.14-.45.25-.68.38a6.55,6.55,0,0,0-1,.69,1.82,1.82,0,0,0-.47.6c-.2.43,0,.7.42.68a1.21,1.21,0,0,0,.38-.06,2.56,2.56,0,0,0,1.48-1.16c.14-.24.27-.48.4-.72a.71.71,0,0,1,.47-.36.65.65,0,0,1,.84.5,2.12,2.12,0,0,1-.16,1.6,3.16,3.16,0,0,1-1.41,1.5A7.08,7.08,0,0,1,105.17,24Z"></path>
      <path d="M113.53,17.74a2.1,2.1,0,0,1-2-1.07,2.15,2.15,0,0,1-.22-1.8,2.69,2.69,0,0,1,.62-1.09,5.55,5.55,0,0,1,2.88-1.62,1.84,1.84,0,0,1,.66,0,.84.84,0,0,1,.67,1.06.65.65,0,0,1-.37.39,10.88,10.88,0,0,0-1.46,1,1.48,1.48,0,0,0-.45.48,2,2,0,0,0-.1.26.21.21,0,0,0,.23.28,3,3,0,0,0,.43-.1,2.92,2.92,0,0,0,.77-.43l1.09-.83a2.82,2.82,0,0,1,.72-.4.62.62,0,0,1,.86.67,2,2,0,0,1-.38,1,5.18,5.18,0,0,1-3.37,2.2A3.93,3.93,0,0,1,113.53,17.74Z"></path>
      <path d="M152.17,17.51a3.65,3.65,0,0,1-.83,2.47,1.9,1.9,0,0,1-3.18-.35,2.92,2.92,0,0,1-.3-1.76,5,5,0,0,1,.55-1.78A2.21,2.21,0,0,1,149.57,15a1,1,0,0,1,.53-.07.54.54,0,0,1,.38.9,3.63,3.63,0,0,0-.77,2.35.85.85,0,0,0,.15.58.23.23,0,0,0,.29.05.83.83,0,0,0,.34-.48,9.27,9.27,0,0,0,.34-1.28,2.64,2.64,0,0,1,.2-.62,1.85,1.85,0,0,1,.21-.33.39.39,0,0,1,.65,0,1.09,1.09,0,0,1,.17.34A4.46,4.46,0,0,1,152.17,17.51Z"></path>
      <path d="M153.77,10.87a2.5,2.5,0,0,0,.26,1.36.89.89,0,0,0,.26.35.27.27,0,0,0,.38-.08.92.92,0,0,0,.05-.54,5.59,5.59,0,0,0-.37-1.33c0-.12-.1-.24-.14-.36a.76.76,0,0,1,0-.59.54.54,0,0,1,.68-.3.83.83,0,0,1,.37.23,1.56,1.56,0,0,1,.35.5,12.82,12.82,0,0,1,.54,1.62,2.44,2.44,0,0,1-.34,1.8,1.82,1.82,0,0,1-3.11-.11,3.83,3.83,0,0,1-.35-3,1.34,1.34,0,0,1,.4-.65.54.54,0,0,1,.89.23A2.52,2.52,0,0,1,153.77,10.87Z"></path>
    </g>
  </g>
</svg>
